<svg version="1.1" id="Layer_1" xmlns="http://www.w3.org/2000/svg" xmlns:xlink="http://www.w3.org/1999/xlink" x="0px" y="0px"
	 width="100%" viewBox="0 0 440 276" enable-background="new 0 0 440 276" xml:space="preserve">
<path fill="#06080A" opacity="1.000000" stroke="none" 
	d="
M2.000000,1.000000 
	C148.278534,1.000000 294.557068,1.000000 440.917786,1.000000 
	C440.917786,92.910683 440.917786,184.821457 440.917786,277.000000 
	C294.977478,277.000000 148.954773,277.000000 2.463957,276.531342 
	C1.997220,184.375122 1.998610,92.687561 2.000000,1.000000 
M157.483658,74.311920 
	C157.309891,74.871834 157.136124,75.431747 156.654099,76.545830 
	C156.759094,77.700081 156.864090,78.854324 156.960449,80.740768 
	C158.724121,84.313782 160.913376,85.479843 164.151474,81.679192 
	C164.151474,81.679192 164.265778,81.328850 164.777985,80.860703 
	C164.610596,78.793045 164.443192,76.725395 164.194473,74.304832 
	C164.194473,74.304832 164.005814,73.995705 163.739075,73.349937 
	C161.600464,71.580940 159.622711,71.231140 158.000000,74.000000 
	C158.000000,74.000000 158.000381,73.998199 157.483658,74.311920 
M109.588257,234.615417 
	C109.380089,232.088181 109.171913,229.560928 108.663841,226.491196 
	C107.042313,226.683701 104.179855,226.537582 104.018578,227.128586 
	C103.390671,229.429443 103.619598,231.964157 103.818504,234.953369 
	C105.545288,234.968796 107.272079,234.984222 109.588257,234.615417 
M106.695580,110.991241 
	C107.013412,111.083488 107.403465,111.342987 107.637764,111.241806 
	C109.694359,110.353622 112.623253,109.899300 113.496422,108.321693 
	C114.301743,106.866676 113.450645,103.753143 112.252159,102.202538 
	C111.505646,101.236687 107.657005,101.070992 107.128456,101.851593 
	C105.848427,103.742020 105.591713,106.377495 105.157639,108.755600 
	C105.033493,109.435783 105.713402,110.262741 105.228172,111.296814 
	C104.567177,111.226830 103.907623,111.136078 103.244957,111.090347 
	C99.774429,110.850784 98.056709,112.908363 98.579620,115.912140 
	C98.847885,117.453163 101.145714,119.844688 102.407448,119.772552 
	C105.590172,119.590569 107.357056,117.389893 106.389717,113.830292 
	C106.139244,112.908615 106.107475,111.927505 106.695580,110.991241 
M90.626549,80.044838 
	C91.522041,80.449287 92.380791,81.043236 93.319412,81.225174 
	C97.259987,81.988983 100.399345,79.543709 100.933617,75.415688 
	C101.416992,71.680946 99.046577,68.117691 95.710297,67.563896 
	C91.975792,66.944008 88.578545,69.651299 88.316307,73.771202 
	C88.205193,75.516792 88.783539,77.306252 88.408890,79.605659 
	C85.208008,76.960800 81.733940,76.357254 78.616554,79.346268 
	C75.505112,82.329582 75.355026,85.979752 77.631470,89.721764 
	C78.010880,90.345428 77.913116,91.259369 77.294876,92.160454 
	C76.223717,91.729202 75.187767,91.133949 74.075287,90.895065 
	C69.242554,89.857346 64.861847,92.700226 63.965748,97.356133 
	C62.926956,102.753410 65.875771,107.430389 70.823959,108.233620 
	C75.717537,109.027992 80.431931,105.810036 80.572250,100.688324 
	C80.651016,97.813591 78.908104,94.888947 78.473061,91.221352 
	C81.557022,92.665665 84.621185,93.649727 87.615288,90.999298 
	C90.633675,88.327393 90.613113,85.048019 89.636948,81.517075 
	C89.506851,81.046501 89.821617,80.452950 90.626549,80.044838 
M51.278664,87.176849 
	C47.841919,86.097954 44.615627,86.204742 42.317734,89.387131 
	C39.479218,93.318230 38.642624,97.903229 41.048721,102.035835 
	C42.424061,104.398048 45.618031,107.133667 47.957272,107.101364 
	C50.316906,107.068779 54.179348,104.135834 54.631111,101.913994 
	C55.463009,97.822601 54.278748,93.321274 54.647133,88.424126 
	C61.968384,89.804222 66.638313,84.614441 64.875633,76.827950 
	C64.021461,73.054726 62.024250,69.803627 57.599087,70.088058 
	C53.328224,70.362564 51.182571,73.520027 50.998951,77.472137 
	C50.851482,80.646118 51.647823,83.863945 51.278664,87.176849 
M404.075134,68.924072 
	C404.058624,73.610809 404.042114,78.297554 403.890106,83.786095 
	C402.693726,88.787697 401.943054,93.949814 400.211365,98.758644 
	C396.175934,109.964760 387.812561,114.592140 376.274445,112.053642 
	C369.315308,110.522552 362.590302,107.892738 355.612854,106.487747 
	C345.760559,104.503876 333.776611,109.592155 329.934479,116.887093 
	C331.025940,116.834419 332.022034,116.875809 332.988617,116.726219 
	C346.658569,114.610603 357.201385,119.541939 364.228485,131.318466 
	C370.092041,141.145050 372.509399,151.897797 372.990479,163.205872 
	C373.862183,183.695831 366.985229,201.747726 355.763580,218.465363 
	C354.949646,219.677902 354.434418,221.090912 353.780334,222.410721 
	C354.136749,222.698685 354.493164,222.986649 354.849579,223.274612 
	C357.327484,221.499954 360.241211,220.112350 362.214905,217.889908 
	C379.311005,198.638885 392.303162,176.916779 401.179169,152.705765 
	C412.303192,122.362801 411.734802,91.395088 406.686890,59.357521 
	C405.688110,55.279179 404.689362,51.200840 403.690582,47.122498 
	C403.204193,47.249928 402.717834,47.377357 402.231445,47.504784 
	C402.859070,53.003044 403.486694,58.501305 404.094299,64.804596 
	C404.158142,65.875214 404.221985,66.945831 404.075134,68.924072 
M345.798920,194.748581 
	C348.958282,192.804489 353.124084,191.568436 355.084930,188.781204 
	C360.578400,180.972366 355.515778,171.675079 345.606598,171.083908 
	C337.314240,170.589157 328.970459,171.007736 320.660614,170.709885 
	C319.053650,170.652267 317.498352,169.152328 315.919220,168.317719 
	C317.540894,167.377563 319.128662,165.703079 320.790192,165.626343 
	C327.431915,165.319656 334.096527,165.512192 340.752686,165.514847 
	C348.352600,165.517883 352.076294,162.735031 354.830597,154.944427 
	C342.335388,154.944427 329.864807,154.770416 317.402191,155.010834 
	C310.129608,155.151138 305.502716,158.394287 304.046631,163.433762 
	C301.597687,171.909363 306.797791,178.608292 316.449188,178.937103 
	C324.261230,179.203247 332.096130,178.829529 339.904510,179.145096 
	C341.526062,179.210632 343.075531,181.060272 344.658234,182.087646 
	C343.040039,182.882797 341.443390,184.308395 339.799957,184.364578 
	C332.486755,184.614563 325.160156,184.471161 317.838379,184.472778 
	C309.592773,184.474594 306.464722,186.683563 303.103180,194.890976 
	C317.053833,194.890976 330.993774,194.890976 345.798920,194.748581 
M201.216064,169.993240 
	C198.119492,169.993240 195.022919,169.993240 192.108948,169.993240 
	C192.108948,178.723160 192.108948,186.808655 192.108948,194.991501 
	C202.360168,194.991501 212.345123,195.455246 222.265305,194.852844 
	C231.074814,194.317886 238.272934,190.147842 241.739899,181.525497 
	C246.692688,169.207901 238.128662,156.621445 223.540604,155.171829 
	C216.283020,154.450623 208.908737,154.852112 201.587784,154.880554 
	C200.582336,154.884445 199.250732,155.397903 198.634842,156.142532 
	C196.341309,158.915390 194.283340,161.883072 191.590881,165.514038 
	C196.829941,165.514038 201.256638,165.460556 205.681503,165.527634 
	C211.164017,165.610703 216.691269,165.403946 222.113159,166.047363 
	C227.144547,166.644394 230.478424,170.827820 230.439331,175.179001 
	C230.398758,179.695831 227.161987,183.567657 221.944061,184.022003 
	C216.255219,184.517365 210.489883,184.134521 204.529541,184.134521 
	C204.529541,180.194489 204.722809,176.695267 204.419922,173.239517 
	C204.320068,172.100189 202.938171,171.073212 201.216064,169.993240 
M165.904617,163.572464 
	C165.328339,162.756912 164.743469,161.947266 164.177078,161.124908 
	C157.587677,151.557480 151.242447,151.538620 144.500946,161.052124 
	C137.770981,170.549362 131.018677,180.030777 124.291618,189.530090 
	C123.100235,191.212448 121.984680,192.948502 120.498329,195.159164 
	C124.353142,195.159164 127.369698,194.918015 130.330811,195.220139 
	C134.042450,195.598831 136.312775,194.378220 138.418884,191.128220 
	C143.272980,183.637726 148.680450,176.505829 154.188751,168.771637 
	C157.859604,174.210266 161.194504,179.151138 165.139114,184.995331 
	C159.269775,184.995331 154.625732,184.605606 150.076080,185.094482 
	C144.451050,185.698898 144.182510,191.479538 140.450729,194.896225 
	C156.672729,194.896225 171.734528,194.896225 187.531082,194.896225 
	C180.196411,184.311783 173.228149,174.256104 165.904617,163.572464 
M249.991333,165.726639 
	C244.614914,178.067902 250.144318,190.488968 263.376892,193.732101 
	C269.869629,195.323410 276.990936,194.176025 283.645142,195.325348 
	C292.650482,196.880737 296.150146,191.269638 300.167694,184.468842 
	C297.716553,184.468842 295.930237,184.474030 294.144012,184.467957 
	C286.156067,184.440765 278.157776,184.647507 270.183624,184.300919 
	C264.507477,184.054214 260.718262,180.158218 260.558624,175.368774 
	C260.398743,170.571640 263.969727,166.748398 269.580811,165.830521 
	C271.046570,165.590729 272.555725,165.548035 274.045807,165.537888 
	C279.038849,165.503876 284.036285,165.636429 289.023193,165.458328 
	C290.519348,165.404892 292.444458,164.971695 293.378113,163.970871 
	C295.809143,161.364990 297.799438,158.347931 300.465393,154.836563 
	C290.526855,154.836563 281.442566,154.823715 272.358368,154.847366 
	C270.530670,154.852127 268.668549,154.797226 266.881927,155.110214 
	C260.115997,156.295532 254.191528,158.976395 249.991333,165.726639 
M381.168304,99.783470 
	C388.882477,92.118507 390.506409,80.170059 385.080933,70.995773 
	C379.055359,60.806763 366.906189,60.734196 361.071930,70.985741 
	C356.834442,78.431534 356.707428,86.290550 360.365356,93.937019 
	C364.546356,102.676941 372.362030,104.935509 381.168304,99.783470 
M39.085800,109.185532 
	C32.775990,113.205437 30.987394,120.573830 34.923317,126.333572 
	C37.399090,129.956589 41.040768,130.987015 44.393394,129.013153 
	C47.939598,126.925354 50.033104,121.427376 48.780186,116.632660 
	C47.604519,112.133583 45.315514,108.632347 39.085800,109.185532 
M55.957581,143.305191 
	C59.161411,148.428940 63.125229,150.047531 67.412666,147.982803 
	C71.455086,146.036072 73.371429,140.963531 71.751457,136.498093 
	C70.278923,132.439056 65.877007,130.090347 61.724602,131.148132 
	C57.008858,132.349396 54.682159,136.818588 55.957581,143.305191 
M62.743534,109.835121 
	C57.377666,111.364410 54.536873,115.183968 55.320320,119.815918 
	C56.161777,124.790802 60.037594,127.933754 64.695824,127.418648 
	C69.266602,126.913216 72.213760,123.408081 72.185745,118.510666 
	C72.155266,113.182785 69.435478,110.444214 62.743534,109.835121 
M49.046074,138.727463 
	C47.645313,135.565994 45.198002,132.759933 41.858425,134.143417 
	C39.228699,135.232849 36.474678,138.164505 35.647919,140.853485 
	C34.842041,143.474548 35.713173,147.200455 37.091061,149.776382 
	C39.658684,154.576508 45.992702,154.455780 48.205612,149.498367 
	C49.511284,146.573364 49.016884,142.844833 49.046074,138.727463 
M74.661461,158.066620 
	C71.846703,151.847046 66.297539,150.159637 62.221848,154.354446 
	C59.624413,157.027817 59.151443,160.174011 60.919193,163.470810 
	C62.586853,166.580917 65.283638,167.971161 68.780190,167.224396 
	C73.255356,166.268646 74.911682,163.134048 74.661461,158.066620 
M43.200748,169.126190 
	C44.643467,171.979065 46.791508,174.667725 50.065956,173.139984 
	C52.205074,172.141968 54.629929,169.302277 54.793690,167.126938 
	C55.013321,164.209427 53.613338,160.860016 51.990208,158.272095 
	C51.373543,157.288879 47.092148,157.061661 46.419815,157.952728 
	C44.595074,160.371124 43.757271,163.553345 42.656113,166.480835 
	C42.459244,167.004211 42.874729,167.757935 43.200748,169.126190 
M76.918617,170.064285 
	C75.602379,170.026321 74.203300,169.680267 72.985306,170.007721 
	C69.221024,171.019791 67.633469,173.763382 68.049316,177.518478 
	C68.479538,181.403351 70.982841,183.479736 74.756302,183.473328 
	C78.293495,183.467331 81.228020,181.491684 81.031334,177.869385 
	C80.892456,175.311783 78.854340,172.857285 76.918617,170.064285 
M108.411888,95.763023 
	C108.830521,94.347862 109.936852,92.679085 109.527550,91.569260 
	C108.618233,89.103584 107.321609,86.502129 105.423904,84.804375 
	C104.555489,84.027466 101.550613,84.734192 100.119125,85.681480 
	C97.236984,87.588745 96.961243,93.774384 99.411247,96.492683 
	C102.220810,99.609940 105.158028,99.105904 108.411888,95.763023 
M58.131653,177.006317 
	C52.106804,177.340027 49.084141,183.487259 52.383389,188.696625 
	C54.681278,192.324890 58.975578,192.307358 61.252029,188.660431 
	C63.574284,184.940125 62.722023,180.860947 58.131653,177.006317 
M63.375767,67.946739 
	C65.728111,73.294662 70.312912,75.180443 72.378998,71.401474 
	C73.817551,68.770279 73.574783,64.865799 73.052826,61.699986 
	C72.858063,60.518696 69.642334,58.907379 67.973068,59.084518 
	C64.131248,59.492207 63.433960,62.892288 63.141705,66.181961 
	C63.112736,66.508072 63.190697,66.843674 63.375767,67.946739 
M122.043457,81.776634 
	C120.336113,75.790581 115.927002,73.201363 113.301582,76.866112 
	C111.561302,79.295319 111.284622,83.342934 111.703224,86.486206 
	C111.887032,87.866417 115.535927,89.880554 117.434639,89.704094 
	C121.142639,89.359482 122.184380,86.073006 122.043457,81.776634 
M86.389641,196.918625 
	C87.248222,195.731125 88.887741,194.486130 88.805397,193.367920 
	C88.625092,190.919205 88.197487,187.944107 86.665901,186.321121 
	C85.549538,185.138107 81.936073,184.885605 80.471611,185.827942 
	C78.748459,186.936752 77.312263,189.751999 77.229248,191.884781 
	C77.060402,196.222473 80.594193,198.185608 86.389641,196.918625 
M81.038727,50.230549 
	C76.975876,53.259499 76.945900,57.223545 78.890755,61.278183 
	C80.486076,64.604103 84.840721,65.440102 86.552475,62.542572 
	C87.972488,60.138885 88.439491,56.714611 88.133324,53.871178 
	C87.794083,50.720631 85.143784,49.304211 81.038727,50.230549 
M92.658096,51.960350 
	C94.228577,56.912712 97.657501,59.266422 100.060364,56.648582 
	C101.850342,54.698479 102.699966,51.109085 102.470863,48.375263 
	C102.335159,46.755909 99.290314,45.380348 97.553589,43.895164 
	C95.892433,45.855038 94.201874,47.791458 92.600853,49.799282 
	C92.351631,50.111828 92.511086,50.750240 92.658096,51.960350 
M125.723114,97.943260 
	C123.681808,96.348549 121.789001,93.890068 119.540016,93.503441 
	C118.314209,93.292717 115.632133,96.378693 115.126122,98.364906 
	C114.362183,101.363457 115.467575,104.532166 119.332756,104.941544 
	C123.736168,105.407936 125.650787,102.848305 125.723114,97.943260 
M127.808868,96.611755 
	C129.572433,99.836182 132.053619,102.554855 135.550583,99.582901 
	C137.229706,98.155846 138.207626,94.649635 137.769394,92.426826 
	C137.477982,90.948753 134.074753,89.062172 132.143417,89.147499 
	C128.408600,89.312515 127.058990,92.272934 127.808868,96.611755 
M112.143593,63.412712 
	C109.188141,61.936962 106.196983,62.234432 105.177216,65.397018 
	C104.511559,67.461426 105.106079,70.626213 106.395149,72.364311 
	C107.157822,73.392624 110.893227,73.411423 112.372780,72.457962 
	C115.239716,70.610420 115.156700,67.499443 113.360901,64.599236 
	C113.190323,64.323746 112.921532,64.109070 112.143593,63.412712 
M129.887375,66.026566 
	C129.052338,63.717545 128.660736,61.038803 127.182632,59.265945 
	C126.511185,58.460598 123.069099,58.790012 121.999252,59.793678 
	C120.702423,61.010258 119.815788,63.644703 120.175537,65.368484 
	C120.529694,67.065483 122.574959,69.477814 124.041794,69.599174 
	C125.805771,69.745132 127.742500,67.803238 129.887375,66.026566 
M89.891640,105.226578 
	C91.838432,107.570450 94.624062,108.790009 96.596611,106.328217 
	C98.050262,104.514023 98.527931,101.200928 98.044739,98.841553 
	C97.787079,97.583443 94.485443,96.031685 92.704292,96.196533 
	C89.168510,96.523773 88.840599,99.677086 89.032227,102.650803 
	C89.073692,103.294159 89.327492,103.923843 89.891640,105.226578 
M144.867325,64.376694 
	C146.149460,61.255154 145.973434,58.203354 142.831833,56.596848 
	C141.446320,55.888351 138.417358,56.167500 137.552841,57.193420 
	C136.288651,58.693634 135.548340,61.416389 135.926926,63.356098 
	C136.697983,67.306572 140.295624,67.831650 144.867325,64.376694 
M97.898849,201.442368 
	C94.577812,198.190414 90.837990,197.752640 89.317223,200.877594 
	C88.466324,202.626053 88.371773,205.774506 89.428085,207.127884 
	C90.476456,208.471085 94.265755,209.446472 95.295021,208.626785 
	C96.925713,207.328171 97.258598,204.399918 97.898849,201.442368 
M149.704102,63.823425 
	C150.802307,67.099556 153.161591,68.545403 156.171921,66.880882 
	C159.171188,65.222488 159.841461,62.039795 157.894470,59.231133 
	C157.002579,57.944481 153.711655,56.597466 153.233765,57.060043 
	C151.590775,58.650341 150.709747,61.027843 149.704102,63.823425 
M151.003525,91.421898 
	C149.685913,88.248917 147.105865,86.867058 144.386383,88.799110 
	C142.811844,89.917740 141.450211,93.081894 141.910355,94.816917 
	C142.351364,96.479805 145.345016,98.643036 147.084015,98.530685 
	C150.351639,98.319580 152.177444,95.798943 151.003525,91.421898 
M109.721214,42.652176 
	C109.522354,44.744667 108.760757,46.982334 109.254486,48.896149 
	C110.024933,51.882545 112.394203,53.179737 115.441460,51.685684 
	C118.085014,50.389565 118.943588,45.673546 117.089432,42.808140 
	C115.170700,39.842930 112.811020,39.338131 109.721214,42.652176 
M140.965881,77.388039 
	C141.353058,80.473969 142.774353,83.532188 146.062881,82.397728 
	C147.883499,81.769661 149.479187,78.248978 149.657486,75.916077 
	C149.769821,74.446312 147.073120,72.761841 145.636520,71.173691 
	C144.078735,72.982567 142.520950,74.791443 140.965881,77.388039 
M126.414841,75.279358 
	C126.400940,77.050415 125.693596,79.356125 126.544823,80.460152 
	C127.664047,81.911766 130.283585,83.432983 131.749115,83.037674 
	C133.144623,82.661270 134.754654,79.824173 134.685242,78.134018 
	C134.606415,76.214951 133.110992,73.929230 131.533356,72.695641 
	C130.857010,72.166794 128.418716,73.891304 126.414841,75.279358 
M70.868370,199.507965 
	C70.515907,196.336960 69.661469,193.115021 65.690186,193.843552 
	C62.032944,194.514450 61.394283,197.899780 62.280991,200.931580 
	C62.742985,202.511215 64.720512,203.647614 66.013481,204.984207 
	C67.623146,203.415726 69.232811,201.847244 70.868370,199.507965 
M76.925430,217.796326 
	C80.403572,218.443008 82.180099,216.267258 82.224815,213.463165 
	C82.258873,211.327454 80.986893,208.966019 79.685455,207.140182 
	C79.300865,206.600616 75.725906,207.206512 75.529182,207.862320 
	C74.784760,210.343918 74.719795,213.059219 74.660034,215.692947 
	C74.646973,216.268738 75.703209,216.868790 76.925430,217.796326 
M102.921394,210.452606 
	C102.380150,212.080917 100.904541,214.394485 101.491768,215.195190 
	C102.722137,216.872833 105.277718,218.942093 106.841522,218.627258 
	C108.397850,218.313919 110.580978,215.164001 110.415527,213.459152 
	C110.045433,209.645554 107.166092,208.493286 102.921394,210.452606 
M205.907730,94.413910 
	C205.608994,91.572403 204.705399,88.646973 201.363663,89.249886 
	C199.721512,89.546165 197.347229,92.200127 197.378860,93.744652 
	C197.418976,95.704086 199.567200,97.620354 200.806351,99.555229 
	C202.491898,98.096794 204.177444,96.638359 205.907730,94.413910 
M87.955536,118.560059 
	C89.183388,116.760544 91.419884,114.910439 91.332939,113.176865 
	C91.257904,111.680527 88.578094,109.255577 86.978783,109.197502 
	C85.427742,109.141190 82.722595,111.368073 82.410469,112.961678 
	C81.799805,116.079475 83.318985,118.751579 87.955536,118.560059 
M164.570175,98.227097 
	C166.025665,95.356911 166.108261,92.451004 162.958801,91.009674 
	C161.598389,90.387093 158.401428,91.020508 157.827835,92.065453 
	C156.908844,93.739601 156.607101,97.213982 157.639343,98.129799 
	C158.944992,99.288177 161.848923,98.645073 164.570175,98.227097 
M180.842911,97.037842 
	C178.956604,96.176910 176.994888,94.552101 175.210983,94.728256 
	C174.055069,94.842407 172.116760,97.815880 172.397842,99.098633 
	C172.790604,100.890923 174.771210,103.434616 176.347427,103.650703 
	C180.220154,104.181625 181.337463,101.304108 180.842911,97.037842 
M131.734818,44.751766 
	C130.111755,43.304348 128.488708,41.856930 126.865662,40.409512 
	C125.863014,42.584316 124.262962,44.715141 124.098320,46.951637 
	C124.009995,48.151581 126.389221,49.533173 127.654968,50.832794 
	C129.034500,49.057556 130.414017,47.282318 131.734818,44.751766 
M143.983154,50.549473 
	C147.369827,48.241795 147.686646,45.105476 145.543076,42.051746 
	C144.849213,41.063274 141.226273,40.687202 141.102509,40.971367 
	C140.140518,43.180374 139.229935,45.640404 139.333298,47.977253 
	C139.377441,48.975029 141.878128,49.864136 143.983154,50.549473 
M80.053513,125.461113 
	C80.393608,128.769745 82.683113,129.874176 85.304657,128.906296 
	C86.771339,128.364792 88.653946,125.970840 88.469017,124.681145 
	C88.232323,123.030296 86.331955,120.761429 84.737228,120.348984 
	C81.856644,119.603966 80.217667,121.671486 80.053513,125.461113 
M95.087036,223.201355 
	C94.302383,221.191711 93.726730,219.049133 92.590599,217.263077 
	C92.295380,216.798965 89.508492,217.030991 89.149651,217.667236 
	C88.176033,219.393478 87.392876,221.539093 87.512589,223.457352 
	C87.588928,224.680527 89.513847,226.824661 90.420685,226.730637 
	C92.007118,226.566162 93.447922,224.996994 95.087036,223.201355 
M178.593353,64.072113 
	C178.333878,66.960121 178.791534,69.860237 182.246750,69.768181 
	C183.586533,69.732483 185.516479,67.334473 185.950272,65.689049 
	C186.287491,64.409996 184.776108,61.365620 183.989273,61.331299 
	C182.293732,61.257339 180.535675,62.616096 178.593353,64.072113 
M164.419098,62.557980 
	C165.690399,64.206062 166.961700,65.854141 168.233002,67.502220 
	C169.513275,66.223640 171.753738,65.002151 171.834000,63.652203 
	C171.937393,61.913395 170.310074,60.071674 169.428192,58.274281 
	C167.770844,59.456795 166.113510,60.639309 164.419098,62.557980 
M176.166245,76.354828 
	C172.872513,76.334137 171.733673,78.478882 172.106369,81.189056 
	C172.317902,82.727325 173.438019,84.634979 174.721436,85.353027 
	C175.540192,85.811104 178.532516,84.497009 178.594208,83.803513 
	C178.787399,81.631279 178.072968,79.372620 177.646332,77.159760 
	C177.603439,76.937271 177.126419,76.798470 176.166245,76.354828 
M186.421188,90.806854 
	C188.220093,90.361534 190.804153,90.462975 191.600449,89.319473 
	C192.421860,88.139915 191.904510,85.569321 191.184250,83.960358 
	C190.799911,83.101799 187.858963,82.316971 187.605103,82.653946 
	C186.433182,84.209541 185.667175,86.127632 185.051773,88.012482 
	C184.858002,88.605980 185.586044,89.500473 186.421188,90.806854 
M189.657898,109.100258 
	C191.097595,107.910461 193.372147,106.918900 193.716431,105.468994 
	C193.998749,104.280052 192.270645,102.045242 190.876663,101.247818 
	C190.087067,100.796120 187.597565,101.926697 186.886002,103.009735 
	C185.278381,105.456627 186.085968,107.701492 189.657898,109.100258 
M81.816284,132.273849 
	C80.988197,132.800995 79.487923,133.288940 79.454475,133.862427 
	C79.341278,135.803421 79.353035,137.963760 80.155251,139.638870 
	C80.464218,140.284027 84.079765,140.374908 84.357849,139.812698 
	C85.193871,138.122528 85.392731,135.969635 85.269493,134.033585 
	C85.227066,133.367188 83.503731,132.807785 81.816284,132.273849 
M83.245201,151.606491 
	C84.080444,150.869980 85.604851,150.141266 85.613312,149.395386 
	C85.633438,147.620407 85.420410,145.399490 84.351570,144.218628 
	C83.690788,143.488586 80.445084,143.758850 79.861954,144.609619 
	C78.971588,145.908676 79.017517,148.178680 79.394394,149.874557 
	C79.575668,150.690292 81.422096,151.135986 83.245201,151.606491 
M87.778328,161.038620 
	C87.043083,159.085648 86.523117,156.988663 85.393242,155.299683 
	C85.163742,154.956619 81.904694,155.743668 81.348404,156.739426 
	C80.629456,158.026321 80.797844,161.342102 81.328171,161.516068 
	C83.169502,162.120071 85.332642,161.742996 87.778328,161.038620 
M195.841125,75.309937 
	C200.024750,75.502876 200.565872,72.677261 199.647324,69.806221 
	C199.270264,68.627640 196.317169,67.062233 195.389389,67.496452 
	C192.534561,68.832581 192.453308,71.493858 194.068604,74.112206 
	C194.310562,74.504417 194.786011,74.752594 195.841125,75.309937 
M137.190125,235.883743 
	C135.615570,235.865723 132.954712,235.336411 132.676117,235.928345 
	C131.928024,237.517746 131.791229,239.694519 132.247162,241.416870 
	C132.456161,242.206390 135.364487,243.231842 135.765244,242.839462 
	C136.904663,241.723831 137.478867,239.969238 138.067780,238.388733 
	C138.257355,237.879974 137.800812,237.130463 137.190125,235.883743 
M89.319061,183.058990 
	C91.277550,183.362701 93.236046,183.666428 95.194527,183.970139 
	C95.186661,182.176010 95.512947,180.279404 95.009422,178.637268 
	C94.802834,177.963486 92.091286,177.200577 91.752731,177.579712 
	C90.574554,178.899094 89.936447,180.700714 89.319061,183.058990 
M116.776886,217.832962 
	C115.812233,219.561005 114.578285,221.217972 114.089081,223.071503 
	C113.979012,223.488556 116.551247,225.312393 117.738373,225.176437 
	C118.925850,225.040421 120.997139,222.938324 120.794739,222.265610 
	C120.297363,220.612549 118.715355,219.285812 116.776886,217.832962 
M100.799644,121.669838 
	C99.225906,122.347282 96.919945,122.639336 96.299355,123.818443 
	C95.757576,124.847801 96.788773,127.149269 97.784035,128.336014 
	C98.213097,128.847595 101.319016,128.214813 101.452675,127.670586 
	C101.882118,125.921913 101.492561,123.972107 100.799644,121.669838 
M95.526237,138.790894 
	C99.144722,138.370544 100.554863,136.202515 98.976227,133.092438 
	C98.470093,132.095291 95.023697,131.306274 94.248589,131.970184 
	C91.900642,133.981293 92.232033,136.544464 95.526237,138.790894 
M84.989494,171.351562 
	C86.121399,174.573914 87.958290,176.408600 90.932945,173.374069 
	C91.808418,172.480972 91.806442,170.355759 91.568619,168.899384 
	C91.448708,168.165039 89.507637,166.946808 89.071945,167.186584 
	C87.549034,168.024597 86.323174,169.402420 84.989494,171.351562 
M128.536438,222.164581 
	C127.480865,222.879501 125.609077,223.527664 125.543961,224.323624 
	C125.418228,225.860580 125.870338,228.263077 126.906631,228.848419 
	C127.959076,229.442886 130.783249,228.795395 131.457321,227.779770 
	C132.968582,225.502731 131.979248,223.341293 128.536438,222.164581 
M136.968704,228.659103 
	C137.955856,230.111069 138.693176,231.952072 140.052261,232.824814 
	C140.601227,233.177322 143.045944,231.683609 143.628876,230.526672 
	C144.093552,229.604431 143.043427,226.767151 142.663101,226.766647 
	C140.837051,226.764236 139.010086,227.436859 136.968704,228.659103 
M92.646042,146.144989 
	C94.173965,147.007370 95.701889,147.869751 97.229805,148.732147 
	C97.813972,147.160538 98.807846,145.590485 98.813744,144.016724 
	C98.816803,143.199509 96.470421,141.519287 96.218483,141.696625 
	C94.788147,142.703415 93.669899,144.153610 92.646042,146.144989 
M98.073639,152.394226 
	C96.388535,153.050415 94.703438,153.706604 93.018341,154.362793 
	C93.662613,155.705734 94.121758,157.202057 95.043701,158.314957 
	C95.404495,158.750473 97.515259,158.555435 97.612556,158.254410 
	C98.159180,156.563187 98.334763,154.752045 98.073639,152.394226 
M162.114212,241.752350 
	C161.438858,240.245712 160.763504,238.739090 160.088135,237.232452 
	C159.143173,237.743011 157.493210,238.145493 157.395020,238.785889 
	C157.166550,240.276138 157.685745,241.880997 157.901978,243.439438 
	C159.257721,243.092041 160.613464,242.744659 162.114212,241.752350 
M105.600021,175.889481 
	C104.056015,173.499939 102.133583,173.203476 100.631882,175.621994 
	C100.140671,176.413101 100.763870,178.872070 101.563988,179.307907 
	C104.066116,180.670853 105.580925,179.429153 105.600021,175.889481 
M96.365211,167.240326 
	C97.545105,168.112396 98.725006,168.984482 99.904900,169.856552 
	C100.621605,168.869736 101.898537,167.881302 101.895691,166.896561 
	C101.892899,165.933411 100.345528,164.065918 99.895599,164.184647 
	C98.588058,164.529755 97.490761,165.671478 96.365211,167.240326 
z"/>
<path fill="#444547" opacity="1.000000" stroke="none" 
	d="
M1.500000,1.000000 
	C1.998610,92.687561 1.997220,184.375122 1.997915,276.531342 
	C1.666666,275.503296 1.042362,274.006775 1.041594,272.509888 
	C0.995185,182.006607 1.000000,91.503304 1.500000,1.000000 
z"/>
<path fill="#2F5CA6" opacity="1.000000" stroke="none" 
	d="
M406.551880,60.133614 
	C411.734802,91.395088 412.303192,122.362801 401.179169,152.705765 
	C392.303162,176.916779 379.311005,198.638885 362.214905,217.889908 
	C360.241211,220.112350 357.327484,221.499954 354.849579,223.274612 
	C354.493164,222.986649 354.136749,222.698685 353.780334,222.410721 
	C354.434418,221.090912 354.949646,219.677902 355.763580,218.465363 
	C366.985229,201.747726 373.862183,183.695831 372.990479,163.205872 
	C372.509399,151.897797 370.092041,141.145050 364.228485,131.318466 
	C357.201385,119.541939 346.658569,114.610603 332.988617,116.726219 
	C332.022034,116.875809 331.025940,116.834419 329.934479,116.887093 
	C333.776611,109.592155 345.760559,104.503876 355.612854,106.487747 
	C362.590302,107.892738 369.315308,110.522552 376.274445,112.053642 
	C387.812561,114.592140 396.175934,109.964760 400.211365,98.758644 
	C401.943054,93.949814 402.693726,88.787697 404.234985,83.081253 
	C404.481873,77.589752 404.383850,72.803101 404.285797,68.016449 
	C404.221985,66.945831 404.158142,65.875214 404.326843,64.172684 
	C405.223572,62.405048 405.887726,61.269329 406.551880,60.133614 
z"/>
<path fill="#F9F9F9" opacity="1.000000" stroke="none" 
	d="
M345.366302,194.819778 
	C330.993774,194.890976 317.053833,194.890976 303.103180,194.890976 
	C306.464722,186.683563 309.592773,184.474594 317.838379,184.472778 
	C325.160156,184.471161 332.486755,184.614563 339.799957,184.364578 
	C341.443390,184.308395 343.040039,182.882797 344.658234,182.087662 
	C343.075531,181.060272 341.526062,179.210632 339.904510,179.145096 
	C332.096130,178.829529 324.261230,179.203247 316.449188,178.937103 
	C306.797791,178.608292 301.597687,171.909363 304.046631,163.433762 
	C305.502716,158.394287 310.129608,155.151138 317.402191,155.010834 
	C329.864807,154.770416 342.335388,154.944427 354.830597,154.944427 
	C352.076294,162.735031 348.352600,165.517883 340.752686,165.514847 
	C334.096527,165.512192 327.431915,165.319656 320.790192,165.626343 
	C319.128662,165.703079 317.540894,167.377563 315.919220,168.317719 
	C317.498352,169.152328 319.053650,170.652267 320.660614,170.709885 
	C328.970459,171.007736 337.314240,170.589157 345.606598,171.083908 
	C355.515778,171.675079 360.578400,180.972366 355.084930,188.781204 
	C353.124084,191.568436 348.958282,192.804489 345.366302,194.819778 
z"/>
<path fill="#F9F9F9" opacity="1.000000" stroke="none" 
	d="
M201.679276,169.994049 
	C202.938171,171.073212 204.320068,172.100189 204.419922,173.239517 
	C204.722809,176.695267 204.529541,180.194489 204.529541,184.134521 
	C210.489883,184.134521 216.255219,184.517365 221.944061,184.022003 
	C227.161987,183.567657 230.398758,179.695831 230.439331,175.179001 
	C230.478424,170.827820 227.144547,166.644394 222.113159,166.047363 
	C216.691269,165.403946 211.164017,165.610703 205.681503,165.527634 
	C201.256638,165.460556 196.829941,165.514038 191.590881,165.514038 
	C194.283340,161.883072 196.341309,158.915390 198.634842,156.142532 
	C199.250732,155.397903 200.582336,154.884445 201.587784,154.880554 
	C208.908737,154.852112 216.283020,154.450623 223.540604,155.171829 
	C238.128662,156.621445 246.692688,169.207901 241.739899,181.525497 
	C238.272934,190.147842 231.074814,194.317886 222.265305,194.852844 
	C212.345123,195.455246 202.360168,194.991501 192.108948,194.991501 
	C192.108948,186.808655 192.108948,178.723160 192.108948,169.993240 
	C195.022919,169.993240 198.119492,169.993240 201.679276,169.994049 
z"/>
<path fill="#FAFBFB" opacity="1.000000" stroke="none" 
	d="
M166.082260,163.886444 
	C173.228149,174.256104 180.196411,184.311783 187.531082,194.896225 
	C171.734528,194.896225 156.672729,194.896225 140.450729,194.896225 
	C144.182510,191.479538 144.451050,185.698898 150.076080,185.094482 
	C154.625732,184.605606 159.269775,184.995331 165.139114,184.995331 
	C161.194504,179.151138 157.859604,174.210266 154.188751,168.771637 
	C148.680450,176.505829 143.272980,183.637726 138.418884,191.128220 
	C136.312775,194.378220 134.042450,195.598831 130.330811,195.220139 
	C127.369698,194.918015 124.353142,195.159164 120.498329,195.159164 
	C121.984680,192.948502 123.100235,191.212448 124.291618,189.530090 
	C131.018677,180.030777 137.770981,170.549362 144.500946,161.052124 
	C151.242447,151.538620 157.587677,151.557480 164.177078,161.124908 
	C164.743469,161.947266 165.328339,162.756912 166.082260,163.886444 
z"/>
<path fill="#F7F7F7" opacity="1.000000" stroke="none" 
	d="
M250.161377,165.386078 
	C254.191528,158.976395 260.115997,156.295532 266.881927,155.110214 
	C268.668549,154.797226 270.530670,154.852127 272.358368,154.847366 
	C281.442566,154.823715 290.526855,154.836563 300.465393,154.836563 
	C297.799438,158.347931 295.809143,161.364990 293.378113,163.970871 
	C292.444458,164.971695 290.519348,165.404892 289.023193,165.458328 
	C284.036285,165.636429 279.038849,165.503876 274.045807,165.537888 
	C272.555725,165.548035 271.046570,165.590729 269.580811,165.830521 
	C263.969727,166.748398 260.398743,170.571640 260.558624,175.368774 
	C260.718262,180.158218 264.507477,184.054214 270.183624,184.300919 
	C278.157776,184.647507 286.156067,184.440765 294.144012,184.467957 
	C295.930237,184.474030 297.716553,184.468842 300.167694,184.468842 
	C296.150146,191.269638 292.650482,196.880737 283.645142,195.325348 
	C276.990936,194.176025 269.869629,195.323410 263.376892,193.732101 
	C250.144318,190.488968 244.614914,178.067902 250.161377,165.386078 
z"/>
<path fill="#F9F9F9" opacity="1.000000" stroke="none" 
	d="
M380.864136,99.999832 
	C372.362030,104.935509 364.546356,102.676941 360.365356,93.937019 
	C356.707428,86.290550 356.834442,78.431534 361.071930,70.985741 
	C366.906189,60.734196 379.055359,60.806763 385.080933,70.995773 
	C390.506409,80.170059 388.882477,92.118507 380.864136,99.999832 
z"/>
<path fill="#32AFD8" opacity="1.000000" stroke="none" 
	d="
M53.934700,88.990784 
	C54.278748,93.321274 55.463009,97.822601 54.631111,101.913994 
	C54.179348,104.135834 50.316906,107.068779 47.957272,107.101364 
	C45.618031,107.133667 42.424061,104.398048 41.048721,102.035835 
	C38.642624,97.903229 39.479218,93.318230 42.317734,89.387131 
	C44.615627,86.204742 47.841919,86.097954 51.635498,87.093826 
	C51.992329,87.010811 51.952942,86.963997 51.944023,87.295280 
	C52.632668,88.101562 53.330235,88.576561 54.006714,89.033020 
	C53.985622,89.014473 53.934700,88.990784 53.934700,88.990784 
z"/>
<path fill="#32AFD9" opacity="1.000000" stroke="none" 
	d="
M39.467606,109.102715 
	C45.315514,108.632347 47.604519,112.133583 48.780186,116.632660 
	C50.033104,121.427376 47.939598,126.925354 44.393394,129.013153 
	C41.040768,130.987015 37.399090,129.956589 34.923317,126.333572 
	C30.987394,120.573830 32.775990,113.205437 39.467606,109.102715 
z"/>
<path fill="#D6D6D8" opacity="1.000000" stroke="none" 
	d="
M55.870628,142.932434 
	C54.682159,136.818588 57.008858,132.349396 61.724602,131.148132 
	C65.877007,130.090347 70.278923,132.439056 71.751457,136.498093 
	C73.371429,140.963531 71.455086,146.036072 67.412666,147.982803 
	C63.125229,150.047531 59.161411,148.428940 55.870628,142.932434 
z"/>
<path fill="#D7D7D9" opacity="1.000000" stroke="none" 
	d="
M63.153221,109.831696 
	C69.435478,110.444214 72.155266,113.182785 72.185745,118.510666 
	C72.213760,123.408081 69.266602,126.913216 64.695824,127.418648 
	C60.037594,127.933754 56.161777,124.790802 55.320320,119.815918 
	C54.536873,115.183968 57.377666,111.364410 63.153221,109.831696 
z"/>
<path fill="#D7D7D9" opacity="1.000000" stroke="none" 
	d="
M77.985931,91.986794 
	C78.908104,94.888947 80.651016,97.813591 80.572250,100.688324 
	C80.431931,105.810036 75.717537,109.027992 70.823959,108.233620 
	C65.875771,107.430389 62.926956,102.753410 63.965748,97.356133 
	C64.861847,92.700226 69.242554,89.857346 74.075287,90.895065 
	C75.187767,91.133949 76.223717,91.729202 77.666931,92.072166 
	C78.038986,91.983879 77.985931,91.986794 77.985931,91.986794 
z"/>
<path fill="#32ADD6" opacity="1.000000" stroke="none" 
	d="
M49.189041,139.102570 
	C49.016884,142.844833 49.511284,146.573364 48.205612,149.498367 
	C45.992702,154.455780 39.658684,154.576508 37.091061,149.776382 
	C35.713173,147.200455 34.842041,143.474548 35.647919,140.853485 
	C36.474678,138.164505 39.228699,135.232849 41.858425,134.143417 
	C45.198002,132.759933 47.645313,135.565994 49.189041,139.102570 
z"/>
<path fill="#33AED8" opacity="1.000000" stroke="none" 
	d="
M52.008842,87.036560 
	C51.647823,83.863945 50.851482,80.646118 50.998951,77.472137 
	C51.182571,73.520027 53.328224,70.362564 57.599087,70.088058 
	C62.024250,69.803627 64.021461,73.054726 64.875633,76.827950 
	C66.638313,84.614441 61.968384,89.804222 54.290916,88.707458 
	C53.934700,88.990784 53.985622,89.014473 54.204617,88.683441 
	C53.600052,87.889610 52.776497,87.426804 51.952942,86.963997 
	C51.952942,86.963997 51.992329,87.010811 52.008842,87.036560 
z"/>
<path fill="#D4D3D6" opacity="1.000000" stroke="none" 
	d="
M74.744011,158.443359 
	C74.911682,163.134048 73.255356,166.268646 68.780190,167.224396 
	C65.283638,167.971161 62.586853,166.580917 60.919193,163.470810 
	C59.151443,160.174011 59.624413,157.027817 62.221848,154.354446 
	C66.297539,150.159637 71.846703,151.847046 74.744011,158.443359 
z"/>
<path fill="#D3D3D6" opacity="1.000000" stroke="none" 
	d="
M89.930367,79.916344 
	C89.821617,80.452950 89.506851,81.046501 89.636948,81.517075 
	C90.613113,85.048019 90.633675,88.327393 87.615288,90.999298 
	C84.621185,93.649727 81.557022,92.665665 78.229492,91.604073 
	C77.985931,91.986794 78.038986,91.983879 78.037415,92.011528 
	C77.913116,91.259369 78.010880,90.345428 77.631470,89.721764 
	C75.355026,85.979752 75.505112,82.329582 78.616554,79.346268 
	C81.733940,76.357254 85.208008,76.960800 88.704132,79.309189 
	C88.999374,79.012718 88.959511,78.943420 88.789261,79.369049 
	C89.102997,79.875404 89.586975,79.956131 90.032326,80.010803 
	C89.993690,79.984734 89.930367,79.916344 89.930367,79.916344 
z"/>
<path fill="#33AFD8" opacity="1.000000" stroke="none" 
	d="
M43.104111,168.765747 
	C42.874729,167.757935 42.459244,167.004211 42.656113,166.480835 
	C43.757271,163.553345 44.595074,160.371124 46.419815,157.952728 
	C47.092148,157.061661 51.373543,157.288879 51.990208,158.272095 
	C53.613338,160.860016 55.013321,164.209427 54.793690,167.126938 
	C54.629929,169.302277 52.205074,172.141968 50.065956,173.139984 
	C46.791508,174.667725 44.643467,171.979065 43.104111,168.765747 
z"/>
<path fill="#D6D6D8" opacity="1.000000" stroke="none" 
	d="
M77.291374,170.210526 
	C78.854340,172.857285 80.892456,175.311783 81.031334,177.869385 
	C81.228020,181.491684 78.293495,183.467331 74.756302,183.473328 
	C70.982841,183.479736 68.479538,181.403351 68.049316,177.518478 
	C67.633469,173.763382 69.221024,171.019791 72.985306,170.007721 
	C74.203300,169.680267 75.602379,170.026321 77.291374,170.210526 
z"/>
<path fill="#D4D4D6" opacity="1.000000" stroke="none" 
	d="
M89.023949,79.044250 
	C88.783539,77.306252 88.205193,75.516792 88.316307,73.771202 
	C88.578545,69.651299 91.975792,66.944008 95.710297,67.563896 
	C99.046577,68.117691 101.416992,71.680946 100.933617,75.415688 
	C100.399345,79.543709 97.259987,81.988983 93.319412,81.225174 
	C92.380791,81.043236 91.522041,80.449287 90.278458,79.980591 
	C89.930367,79.916344 89.993690,79.984734 89.993683,79.688889 
	C89.648964,79.243164 89.304237,79.093292 88.959511,78.943420 
	C88.959511,78.943420 88.999374,79.012718 89.023949,79.044250 
z"/>
<path fill="#25549A" opacity="1.000000" stroke="none" 
	d="
M108.192017,96.062843 
	C105.158028,99.105904 102.220810,99.609940 99.411247,96.492683 
	C96.961243,93.774384 97.236984,87.588745 100.119125,85.681480 
	C101.550613,84.734192 104.555489,84.027466 105.423904,84.804375 
	C107.321609,86.502129 108.618233,89.103584 109.527550,91.569260 
	C109.936852,92.679085 108.830521,94.347862 108.192017,96.062843 
z"/>
<path fill="#33ACD3" opacity="1.000000" stroke="none" 
	d="
M58.502537,177.141052 
	C62.722023,180.860947 63.574284,184.940125 61.252029,188.660431 
	C58.975578,192.307358 54.681278,192.324890 52.383389,188.696625 
	C49.084141,183.487259 52.106804,177.340027 58.502537,177.141052 
z"/>
<path fill="#33ABD2" opacity="1.000000" stroke="none" 
	d="
M63.297398,67.560806 
	C63.190697,66.843674 63.112736,66.508072 63.141705,66.181961 
	C63.433960,62.892288 64.131248,59.492207 67.973068,59.084518 
	C69.642334,58.907379 72.858063,60.518696 73.052826,61.699986 
	C73.574783,64.865799 73.817551,68.770279 72.378998,71.401474 
	C70.312912,75.180443 65.728111,73.294662 63.297398,67.560806 
z"/>
<path fill="#265499" opacity="1.000000" stroke="none" 
	d="
M122.066261,82.183670 
	C122.184380,86.073006 121.142639,89.359482 117.434639,89.704094 
	C115.535927,89.880554 111.887032,87.866417 111.703224,86.486206 
	C111.284622,83.342934 111.561302,79.295319 113.301582,76.866112 
	C115.927002,73.201363 120.336113,75.790581 122.066261,82.183670 
z"/>
<path fill="#D2D2D4" opacity="1.000000" stroke="none" 
	d="
M86.034882,197.085815 
	C80.594193,198.185608 77.060402,196.222473 77.229248,191.884781 
	C77.312263,189.751999 78.748459,186.936752 80.471611,185.827942 
	C81.936073,184.885605 85.549538,185.138107 86.665901,186.321121 
	C88.197487,187.944107 88.625092,190.919205 88.805397,193.367920 
	C88.887741,194.486130 87.248222,195.731125 86.034882,197.085815 
z"/>
<path fill="#34ACD3" opacity="1.000000" stroke="none" 
	d="
M81.423569,50.090496 
	C85.143784,49.304211 87.794083,50.720631 88.133324,53.871178 
	C88.439491,56.714611 87.972488,60.138885 86.552475,62.542572 
	C84.840721,65.440102 80.486076,64.604103 78.890755,61.278183 
	C76.945900,57.223545 76.975876,53.259499 81.423569,50.090496 
z"/>
<path fill="#34ACD3" opacity="1.000000" stroke="none" 
	d="
M92.569824,51.599159 
	C92.511086,50.750240 92.351631,50.111828 92.600853,49.799282 
	C94.201874,47.791458 95.892433,45.855038 97.553589,43.895164 
	C99.290314,45.380348 102.335159,46.755909 102.470863,48.375263 
	C102.699966,51.109085 101.850342,54.698479 100.060364,56.648582 
	C97.657501,59.266422 94.228577,56.912712 92.569824,51.599159 
z"/>
<path fill="#265499" opacity="1.000000" stroke="none" 
	d="
M125.779709,98.320740 
	C125.650787,102.848305 123.736168,105.407936 119.332756,104.941544 
	C115.467575,104.532166 114.362183,101.363457 115.126122,98.364906 
	C115.632133,96.378693 118.314209,93.292717 119.540016,93.503441 
	C121.789001,93.890068 123.681808,96.348549 125.779709,98.320740 
z"/>
<path fill="#265499" opacity="1.000000" stroke="none" 
	d="
M127.672386,96.268570 
	C127.058990,92.272934 128.408600,89.312515 132.143417,89.147499 
	C134.074753,89.062172 137.477982,90.948753 137.769394,92.426826 
	C138.207626,94.649635 137.229706,98.155846 135.550583,99.582901 
	C132.053619,102.554855 129.572433,99.836182 127.672386,96.268570 
z"/>
<path fill="#CECED0" opacity="1.000000" stroke="none" 
	d="
M112.420959,63.639435 
	C112.921532,64.109070 113.190323,64.323746 113.360901,64.599236 
	C115.156700,67.499443 115.239716,70.610420 112.372780,72.457962 
	C110.893227,73.411423 107.157822,73.392624 106.395149,72.364311 
	C105.106079,70.626213 104.511559,67.461426 105.177216,65.397018 
	C106.196983,62.234432 109.188141,61.936962 112.420959,63.639435 
z"/>
<path fill="#D5D4D7" opacity="1.000000" stroke="none" 
	d="
M129.745911,66.395920 
	C127.742500,67.803238 125.805771,69.745132 124.041794,69.599174 
	C122.574959,69.477814 120.529694,67.065483 120.175537,65.368484 
	C119.815788,63.644703 120.702423,61.010258 121.999252,59.793678 
	C123.069099,58.790012 126.511185,58.460598 127.182632,59.265945 
	C128.660736,61.038803 129.052338,63.717545 129.745911,66.395920 
z"/>
<path fill="#275396" opacity="1.000000" stroke="none" 
	d="
M89.687561,104.893204 
	C89.327492,103.923843 89.073692,103.294159 89.032227,102.650803 
	C88.840599,99.677086 89.168510,96.523773 92.704292,96.196533 
	C94.485443,96.031685 97.787079,97.583443 98.044739,98.841553 
	C98.527931,101.200928 98.050262,104.514023 96.596611,106.328217 
	C94.624062,108.790009 91.838432,107.570450 89.687561,104.893204 
z"/>
<path fill="#D0D0D2" opacity="1.000000" stroke="none" 
	d="
M144.643326,64.681946 
	C140.295624,67.831650 136.697983,67.306572 135.926926,63.356098 
	C135.548340,61.416389 136.288651,58.693634 137.552841,57.193420 
	C138.417358,56.167500 141.446320,55.888351 142.831833,56.596848 
	C145.973434,58.203354 146.149460,61.255154 144.643326,64.681946 
z"/>
<path fill="#D4D4D6" opacity="1.000000" stroke="none" 
	d="
M98.019730,201.801773 
	C97.258598,204.399918 96.925713,207.328171 95.295021,208.626785 
	C94.265755,209.446472 90.476456,208.471085 89.428085,207.127884 
	C88.371773,205.774506 88.466324,202.626053 89.317223,200.877594 
	C90.837990,197.752640 94.577812,198.190414 98.019730,201.801773 
z"/>
<path fill="#CECED0" opacity="1.000000" stroke="none" 
	d="
M149.621216,63.464390 
	C150.709747,61.027843 151.590775,58.650341 153.233765,57.060043 
	C153.711655,56.597466 157.002579,57.944481 157.894470,59.231133 
	C159.841461,62.039795 159.171188,65.222488 156.171921,66.880882 
	C153.161591,68.545403 150.802307,67.099556 149.621216,63.464390 
z"/>
<path fill="#255295" opacity="1.000000" stroke="none" 
	d="
M151.095184,91.779533 
	C152.177444,95.798943 150.351639,98.319580 147.084015,98.530685 
	C145.345016,98.643036 142.351364,96.479805 141.910355,94.816917 
	C141.450211,93.081894 142.811844,89.917740 144.386383,88.799110 
	C147.105865,86.867058 149.685913,88.248917 151.095184,91.779533 
z"/>
<path fill="#38ACD3" opacity="1.000000" stroke="none" 
	d="
M109.940506,42.326401 
	C112.811020,39.338131 115.170700,39.842930 117.089432,42.808140 
	C118.943588,45.673546 118.085014,50.389565 115.441460,51.685684 
	C112.394203,53.179737 110.024933,51.882545 109.254486,48.896149 
	C108.760757,46.982334 109.522354,44.744667 109.940506,42.326401 
z"/>
<path fill="#255295" opacity="1.000000" stroke="none" 
	d="
M140.964523,76.994179 
	C142.520950,74.791443 144.078735,72.982567 145.636520,71.173691 
	C147.073120,72.761841 149.769821,74.446312 149.657486,75.916077 
	C149.479187,78.248978 147.883499,81.769661 146.062881,82.397728 
	C142.774353,83.532188 141.353058,80.473969 140.964523,76.994179 
z"/>
<path fill="#275396" opacity="1.000000" stroke="none" 
	d="
M126.597916,74.935669 
	C128.418716,73.891304 130.857010,72.166794 131.533356,72.695641 
	C133.110992,73.929230 134.606415,76.214951 134.685242,78.134018 
	C134.754654,79.824173 133.144623,82.661270 131.749115,83.037674 
	C130.283585,83.432983 127.664047,81.911766 126.544823,80.460152 
	C125.693596,79.356125 126.400940,77.050415 126.597916,74.935669 
z"/>
<path fill="#37A8CE" opacity="1.000000" stroke="none" 
	d="
M70.855423,199.893372 
	C69.232811,201.847244 67.623146,203.415726 66.013481,204.984207 
	C64.720512,203.647614 62.742985,202.511215 62.280991,200.931580 
	C61.394283,197.899780 62.032944,194.514450 65.690186,193.843552 
	C69.661469,193.115021 70.515907,196.336960 70.855423,199.893372 
z"/>
<path fill="#37A8CE" opacity="1.000000" stroke="none" 
	d="
M76.596207,217.626984 
	C75.703209,216.868790 74.646973,216.268738 74.660034,215.692947 
	C74.719795,213.059219 74.784760,210.343918 75.529182,207.862320 
	C75.725906,207.206512 79.300865,206.600616 79.685455,207.140182 
	C80.986893,208.966019 82.258873,211.327454 82.224815,213.463165 
	C82.180099,216.267258 80.403572,218.443008 76.596207,217.626984 
z"/>
<path fill="#265499" opacity="1.000000" stroke="none" 
	d="
M106.024620,111.022392 
	C105.713402,110.262741 105.033493,109.435783 105.157639,108.755600 
	C105.591713,106.377495 105.848427,103.742020 107.128456,101.851593 
	C107.657005,101.070992 111.505646,101.236687 112.252159,102.202538 
	C113.450645,103.753143 114.301743,106.866676 113.496422,108.321693 
	C112.623253,109.899300 109.694359,110.353622 107.637764,111.241806 
	C107.403465,111.342987 107.013412,111.083488 106.343613,110.998886 
	C105.991653,111.006538 106.024620,111.022392 106.024620,111.022392 
z"/>
<path fill="#D0D1D3" opacity="1.000000" stroke="none" 
	d="
M103.215179,210.226074 
	C107.166092,208.493286 110.045433,209.645554 110.415527,213.459152 
	C110.580978,215.164001 108.397850,218.313919 106.841522,218.627258 
	C105.277718,218.942093 102.722137,216.872833 101.491768,215.195190 
	C100.904541,214.394485 102.380150,212.080917 103.215179,210.226074 
z"/>
<path fill="#275292" opacity="1.000000" stroke="none" 
	d="
M205.885345,94.796921 
	C204.177444,96.638359 202.491898,98.096794 200.806366,99.555237 
	C199.567200,97.620354 197.418976,95.704086 197.378860,93.744652 
	C197.347229,92.200127 199.721512,89.546165 201.363663,89.249886 
	C204.705399,88.646973 205.608994,91.572403 205.885345,94.796921 
z"/>
<path fill="#275396" opacity="1.000000" stroke="none" 
	d="
M87.595688,118.672554 
	C83.318985,118.751579 81.799805,116.079475 82.410469,112.961678 
	C82.722595,111.368073 85.427742,109.141190 86.978783,109.197502 
	C88.578094,109.255577 91.257904,111.680527 91.332939,113.176865 
	C91.419884,114.910439 89.183388,116.760544 87.595688,118.672554 
z"/>
<path fill="#275396" opacity="1.000000" stroke="none" 
	d="
M164.316833,98.503036 
	C161.848923,98.645073 158.944992,99.288177 157.639343,98.129799 
	C156.607101,97.213982 156.908844,93.739601 157.827835,92.065453 
	C158.401428,91.020508 161.598389,90.387093 162.958801,91.009674 
	C166.108261,92.451004 166.025665,95.356911 164.316833,98.503036 
z"/>
<path fill="#275292" opacity="1.000000" stroke="none" 
	d="
M180.930176,97.429398 
	C181.337463,101.304108 180.220154,104.181625 176.347427,103.650703 
	C174.771210,103.434616 172.790604,100.890923 172.397842,99.098633 
	C172.116760,97.815880 174.055069,94.842407 175.210983,94.728256 
	C176.994888,94.552101 178.956604,96.176910 180.930176,97.429398 
z"/>
<path fill="#37A6CC" opacity="1.000000" stroke="none" 
	d="
M131.764191,45.129425 
	C130.414017,47.282318 129.034500,49.057556 127.654968,50.832794 
	C126.389221,49.533173 124.009995,48.151581 124.098320,46.951637 
	C124.262962,44.715141 125.863014,42.584316 126.865662,40.409512 
	C128.488708,41.856930 130.111755,43.304348 131.764191,45.129425 
z"/>
<path fill="#37A6CC" opacity="1.000000" stroke="none" 
	d="
M143.622849,50.676048 
	C141.878128,49.864136 139.377441,48.975029 139.333298,47.977253 
	C139.229935,45.640404 140.140518,43.180374 141.102509,40.971367 
	C141.226273,40.687202 144.849213,41.063274 145.543076,42.051746 
	C147.686646,45.105476 147.369827,48.241795 143.622849,50.676048 
z"/>
<path fill="#275190" opacity="1.000000" stroke="none" 
	d="
M80.045479,125.056839 
	C80.217667,121.671486 81.856644,119.603966 84.737228,120.348984 
	C86.331955,120.761429 88.232323,123.030296 88.469017,124.681145 
	C88.653946,125.970840 86.771339,128.364792 85.304657,128.906296 
	C82.683113,129.874176 80.393608,128.769745 80.045479,125.056839 
z"/>
<path fill="#37A8CE" opacity="1.000000" stroke="none" 
	d="
M95.018387,223.608856 
	C93.447922,224.996994 92.007118,226.566162 90.420685,226.730637 
	C89.513847,226.824661 87.588928,224.680527 87.512589,223.457352 
	C87.392876,221.539093 88.176033,219.393478 89.149651,217.667236 
	C89.508492,217.030991 92.295380,216.798965 92.590599,217.263077 
	C93.726730,219.049133 94.302383,221.191711 95.018387,223.608856 
z"/>
<path fill="#D0D1D3" opacity="1.000000" stroke="none" 
	d="
M178.698273,63.730339 
	C180.535675,62.616096 182.293732,61.257339 183.989273,61.331299 
	C184.776108,61.365620 186.287491,64.409996 185.950272,65.689049 
	C185.516479,67.334473 183.586533,69.732483 182.246750,69.768181 
	C178.791534,69.860237 178.333878,66.960121 178.698273,63.730339 
z"/>
<path fill="#275394" opacity="1.000000" stroke="none" 
	d="
M105.983444,110.990112 
	C106.107475,111.927505 106.139244,112.908615 106.389717,113.830292 
	C107.357056,117.389893 105.590172,119.590569 102.407448,119.772552 
	C101.145714,119.844688 98.847885,117.453163 98.579620,115.912140 
	C98.056709,112.908363 99.774429,110.850784 103.244957,111.090347 
	C103.907623,111.136078 104.567177,111.226830 105.626396,111.159607 
	C106.024620,111.022392 105.991653,111.006538 105.983444,110.990112 
z"/>
<path fill="#CCCCCE" opacity="1.000000" stroke="none" 
	d="
M164.437622,62.189899 
	C166.113510,60.639309 167.770844,59.456795 169.428192,58.274277 
	C170.310074,60.071674 171.937393,61.913395 171.834000,63.652203 
	C171.753738,65.002151 169.513275,66.223640 168.233002,67.502220 
	C166.961700,65.854141 165.690399,64.206062 164.437622,62.189899 
z"/>
<path fill="#275292" opacity="1.000000" stroke="none" 
	d="
M176.508560,76.487831 
	C177.126419,76.798470 177.603439,76.937271 177.646332,77.159760 
	C178.072968,79.372620 178.787399,81.631279 178.594208,83.803513 
	C178.532516,84.497009 175.540192,85.811104 174.721436,85.353027 
	C173.438019,84.634979 172.317902,82.727325 172.106369,81.189056 
	C171.733673,78.478882 172.872513,76.334137 176.508560,76.487831 
z"/>
<path fill="#275396" opacity="1.000000" stroke="none" 
	d="
M186.156693,90.532028 
	C185.586044,89.500473 184.858002,88.605980 185.051773,88.012482 
	C185.667175,86.127632 186.433182,84.209541 187.605103,82.653946 
	C187.858963,82.316971 190.799911,83.101799 191.184250,83.960358 
	C191.904510,85.569321 192.421860,88.139915 191.600449,89.319473 
	C190.804153,90.462975 188.220093,90.361534 186.156693,90.532028 
z"/>
<path fill="#275394" opacity="1.000000" stroke="none" 
	d="
M189.259766,109.056610 
	C186.085968,107.701492 185.278381,105.456627 186.886002,103.009735 
	C187.597565,101.926697 190.087067,100.796120 190.876663,101.247818 
	C192.270645,102.045242 193.998749,104.280052 193.716431,105.468994 
	C193.372147,106.918900 191.097595,107.910461 189.259766,109.056610 
z"/>
<path fill="#275394" opacity="1.000000" stroke="none" 
	d="
M82.182281,132.236679 
	C83.503731,132.807785 85.227066,133.367188 85.269493,134.033585 
	C85.392731,135.969635 85.193871,138.122528 84.357849,139.812698 
	C84.079765,140.374908 80.464218,140.284027 80.155251,139.638870 
	C79.353035,137.963760 79.341278,135.803421 79.454475,133.862427 
	C79.487923,133.288940 80.988197,132.800995 82.182281,132.236679 
z"/>
<path fill="#275394" opacity="1.000000" stroke="none" 
	d="
M82.879837,151.677887 
	C81.422096,151.135986 79.575668,150.690292 79.394394,149.874557 
	C79.017517,148.178680 78.971588,145.908676 79.861954,144.609619 
	C80.445084,143.758850 83.690788,143.488586 84.351570,144.218628 
	C85.420410,145.399490 85.633438,147.620407 85.613312,149.395386 
	C85.604851,150.141266 84.080444,150.869980 82.879837,151.677887 
z"/>
<path fill="#275292" opacity="1.000000" stroke="none" 
	d="
M87.575851,161.388870 
	C85.332642,161.742996 83.169502,162.120071 81.328171,161.516068 
	C80.797844,161.342102 80.629456,158.026321 81.348404,156.739426 
	C81.904694,155.743668 85.163742,154.956619 85.393242,155.299683 
	C86.523117,156.988663 87.043083,159.085648 87.575851,161.388870 
z"/>
<path fill="#CECED0" opacity="1.000000" stroke="none" 
	d="
M195.497284,75.188675 
	C194.786011,74.752594 194.310562,74.504417 194.068604,74.112206 
	C192.453308,71.493858 192.534561,68.832581 195.389389,67.496452 
	C196.317169,67.062233 199.270264,68.627640 199.647324,69.806221 
	C200.565872,72.677261 200.024750,75.502876 195.497284,75.188675 
z"/>
<path fill="#2557A5" opacity="1.000000" stroke="none" 
	d="
M156.969070,80.008575 
	C156.864090,78.854324 156.759094,77.700081 157.056122,76.100708 
	C157.638901,75.103127 157.819641,74.550659 158.000381,73.998199 
	C158.000381,73.998199 158.000000,74.000000 158.428253,74.001160 
	C160.572952,74.000114 162.289383,73.997910 164.005814,73.995705 
	C164.005814,73.995705 164.194473,74.304832 164.156250,74.956734 
	C164.167282,77.515373 164.216537,79.422112 164.265778,81.328850 
	C164.265778,81.328850 164.151474,81.679192 163.655304,81.829742 
	C161.095795,81.323059 159.032425,80.665817 156.969070,80.008575 
z"/>
<path fill="#39A6C9" opacity="1.000000" stroke="none" 
	d="
M137.414978,236.187408 
	C137.800812,237.130463 138.257355,237.879974 138.067780,238.388733 
	C137.478867,239.969238 136.904663,241.723831 135.765244,242.839462 
	C135.364487,243.231842 132.456161,242.206390 132.247162,241.416870 
	C131.791229,239.694519 131.928024,237.517746 132.676117,235.928345 
	C132.954712,235.336411 135.615570,235.865723 137.414978,236.187408 
z"/>
<path fill="#275190" opacity="1.000000" stroke="none" 
	d="
M89.206024,182.688995 
	C89.936447,180.700714 90.574554,178.899094 91.752731,177.579712 
	C92.091286,177.200577 94.802834,177.963486 95.009422,178.637268 
	C95.512947,180.279404 95.186661,182.176010 95.194534,183.970139 
	C93.236046,183.666428 91.277550,183.362701 89.206024,182.688995 
z"/>
<path fill="#D4D4D6" opacity="1.000000" stroke="none" 
	d="
M117.173248,217.830383 
	C118.715355,219.285812 120.297363,220.612549 120.794739,222.265610 
	C120.997139,222.938324 118.925850,225.040421 117.738373,225.176437 
	C116.551247,225.312393 113.979012,223.488556 114.089081,223.071503 
	C114.578285,221.217972 115.812233,219.561005 117.173248,217.830383 
z"/>
<path fill="#264D87" opacity="1.000000" stroke="none" 
	d="
M101.109283,121.884857 
	C101.492561,123.972107 101.882118,125.921913 101.452675,127.670586 
	C101.319016,128.214813 98.213097,128.847595 97.784035,128.336014 
	C96.788773,127.149269 95.757576,124.847801 96.299355,123.818443 
	C96.919945,122.639336 99.225906,122.347282 101.109283,121.884857 
z"/>
<path fill="#254F8C" opacity="1.000000" stroke="none" 
	d="
M95.159195,138.675354 
	C92.232033,136.544464 91.900642,133.981293 94.248589,131.970184 
	C95.023697,131.306274 98.470093,132.095291 98.976227,133.092438 
	C100.554863,136.202515 99.144722,138.370544 95.159195,138.675354 
z"/>
<path fill="#275190" opacity="1.000000" stroke="none" 
	d="
M84.986969,170.963348 
	C86.323174,169.402420 87.549034,168.024597 89.071945,167.186584 
	C89.507637,166.946808 91.448708,168.165039 91.568619,168.899384 
	C91.806442,170.355759 91.808418,172.480972 90.932945,173.374069 
	C87.958290,176.408600 86.121399,174.573914 84.986969,170.963348 
z"/>
<path fill="#CCCCCE" opacity="1.000000" stroke="none" 
	d="
M128.912384,222.211105 
	C131.979248,223.341293 132.968582,225.502731 131.457321,227.779770 
	C130.783249,228.795395 127.959076,229.442886 126.906631,228.848419 
	C125.870338,228.263077 125.418228,225.860580 125.543961,224.323624 
	C125.609077,223.527664 127.480865,222.879501 128.912384,222.211105 
z"/>
<path fill="#CCCCCE" opacity="1.000000" stroke="none" 
	d="
M137.076080,228.264435 
	C139.010086,227.436859 140.837051,226.764236 142.663101,226.766647 
	C143.043427,226.767151 144.093552,229.604431 143.628876,230.526672 
	C143.045944,231.683609 140.601227,233.177322 140.052261,232.824814 
	C138.693176,231.952072 137.955856,230.111069 137.076080,228.264435 
z"/>
<path fill="#275292" opacity="1.000000" stroke="none" 
	d="
M92.545746,145.798965 
	C93.669899,144.153610 94.788147,142.703415 96.218483,141.696625 
	C96.470421,141.519287 98.816803,143.199509 98.813744,144.016724 
	C98.807846,145.590485 97.813972,147.160538 97.229813,148.732147 
	C95.701889,147.869751 94.173965,147.007370 92.545746,145.798965 
z"/>
<path fill="#324D78" opacity="1.000000" stroke="none" 
	d="
M406.619385,59.745567 
	C405.887726,61.269329 405.223572,62.405048 404.336853,63.770164 
	C403.486694,58.501305 402.859070,53.003044 402.231445,47.504784 
	C402.717834,47.377357 403.204193,47.249928 403.690582,47.122498 
	C404.689362,51.200840 405.688110,55.279179 406.619385,59.745567 
z"/>
<path fill="#275394" opacity="1.000000" stroke="none" 
	d="
M98.355293,152.688019 
	C98.334763,154.752045 98.159180,156.563187 97.612556,158.254410 
	C97.515259,158.555435 95.404495,158.750473 95.043701,158.314957 
	C94.121758,157.202057 93.662613,155.705734 93.018341,154.362793 
	C94.703438,153.706604 96.388535,153.050415 98.355293,152.688019 
z"/>
<path fill="#3DA2C2" opacity="1.000000" stroke="none" 
	d="
M162.041702,242.074799 
	C160.613464,242.744659 159.257721,243.092041 157.901978,243.439423 
	C157.685745,241.880997 157.166550,240.276138 157.395020,238.785889 
	C157.493210,238.145493 159.143173,237.743011 160.088135,237.232452 
	C160.763504,238.739090 161.438858,240.245712 162.041702,242.074799 
z"/>
<path fill="#264878" opacity="1.000000" stroke="none" 
	d="
M105.693741,176.255585 
	C105.580925,179.429153 104.066116,180.670853 101.563988,179.307907 
	C100.763870,178.872070 100.140671,176.413101 100.631882,175.621994 
	C102.133583,173.203476 104.056015,173.499939 105.693741,176.255585 
z"/>
<path fill="#2B5187" opacity="1.000000" stroke="none" 
	d="
M96.338104,166.870514 
	C97.490761,165.671478 98.588058,164.529755 99.895599,164.184647 
	C100.345528,164.065918 101.892899,165.933411 101.895691,166.896561 
	C101.898537,167.881302 100.621605,168.869736 99.904907,169.856552 
	C98.725006,168.984482 97.545105,168.112396 96.338104,166.870514 
z"/>
<path fill="#3C93B0" opacity="1.000000" stroke="none" 
	d="
M103.529770,234.411865 
	C103.619598,231.964157 103.390671,229.429443 104.018578,227.128586 
	C104.179855,226.537582 107.042313,226.683701 108.733116,226.843658 
	C108.802391,227.196136 108.640816,227.358368 108.292091,227.255707 
	C102.942329,227.298813 103.982941,230.904114 103.919899,234.066803 
	C103.789635,234.181580 103.529770,234.411865 103.529770,234.411865 
z"/>
<path fill="#324D78" opacity="1.000000" stroke="none" 
	d="
M404.180481,68.470261 
	C404.383850,72.803101 404.481873,77.589752 404.302734,82.680344 
	C404.042114,78.297554 404.058624,73.610809 404.180481,68.470261 
z"/>
<path fill="#3C93B0" opacity="1.000000" stroke="none" 
	d="
M108.883072,227.114914 
	C109.171913,229.560928 109.380089,232.088181 109.213104,234.727737 
	C108.837944,234.840057 108.676842,234.680664 108.780899,234.284210 
	C108.803574,231.711304 108.722198,229.534836 108.640823,227.358368 
	C108.640816,227.358368 108.802391,227.196136 108.883072,227.114914 
z"/>
<path fill="#264878" opacity="1.000000" stroke="none" 
	d="
M156.964752,80.374672 
	C159.032425,80.665817 161.095795,81.323059 163.544022,81.976601 
	C160.913376,85.479843 158.724121,84.313782 156.964752,80.374672 
z"/>
<path fill="#264878" opacity="1.000000" stroke="none" 
	d="
M163.872437,73.672821 
	C162.289383,73.997910 160.572952,74.000114 158.427505,74.001450 
	C159.622711,71.231140 161.600464,71.580940 163.872437,73.672821 
z"/>
<path fill="#264878" opacity="1.000000" stroke="none" 
	d="
M164.521881,81.094772 
	C164.216537,79.422112 164.167282,77.515373 164.196899,75.133186 
	C164.443192,76.725395 164.610596,78.793045 164.521881,81.094772 
z"/>
<path fill="#3C93B0" opacity="1.000000" stroke="none" 
	d="
M108.918404,234.919861 
	C107.272079,234.984222 105.545288,234.968796 103.674133,234.682617 
	C103.529770,234.411865 103.789635,234.181580 104.258118,234.136993 
	C106.043350,234.288483 107.360100,234.484573 108.676842,234.680664 
	C108.676842,234.680664 108.837944,234.840057 108.918404,234.919861 
z"/>
<path fill="#264878" opacity="1.000000" stroke="none" 
	d="
M157.742020,74.155060 
	C157.819641,74.550659 157.638901,75.103127 157.210266,75.823624 
	C157.136124,75.431747 157.309891,74.871834 157.742020,74.155060 
z"/>
<path fill="#06080A" opacity="1.000000" stroke="none" 
	d="
M51.944023,87.295280 
	C52.776497,87.426804 53.600052,87.889610 54.225708,88.701988 
	C53.330235,88.576561 52.632668,88.101562 51.944023,87.295280 
z"/>
<path fill="#06080A" opacity="1.000000" stroke="none" 
	d="
M88.789261,79.369049 
	C89.304237,79.093292 89.648964,79.243164 90.032318,79.714951 
	C89.586975,79.956131 89.102997,79.875404 88.789261,79.369049 
z"/>
<path fill="#2FB4E2" opacity="1.000000" stroke="none" 
	d="
M108.780899,234.284210 
	C107.360100,234.484573 106.043350,234.288483 104.388382,234.022217 
	C103.982941,230.904114 102.942329,227.298813 108.292099,227.255707 
	C108.722198,229.534836 108.803574,231.711304 108.780899,234.284210 
z"/>
</svg>